# xmcd CD database file
# Copyright (C) 1997 Ti Kan
# 
# Track frame offsets:
#     182
#     17482
#     34732
#     53557
#     70957
#     86782
#     103807
#     117907
#     132682
#     150157
#     167857
#     180007
# 
# Disc length: 2612 seconds
# 
# Revision: 1
# Processed by: cddbd v1.4b41PL1 Copyright (c) Steve Scherf et al.
# Submitted via: DiscPlay 4.0.3
# 
DISCID=930a320c
DTITLE=George V Hamilton - Roll With The Punches
DYEAR=1900
DGENRE=
TTITLE0=Roll With The Punches
TTITLE1=Midnight At A Redlight
TTITLE2=Blue Eyes, Blue Skies
TTITLE3=The One And Only Mr Lonely
TTITLE4=Little Red Robin
TTITLE5=Ghost Town
TTITLE6=You And Yesterday
TTITLE7=This Heart Of Mine
TTITLE8=Pardon Me
TTITLE9=Down IN Flames
TTITLE10=Take My Advice
TTITLE11=Forget About Me
EXTD=
EXTT0=
EXTT1=
EXTT2=
EXTT3=
EXTT4=
EXTT5=
EXTT6=
EXTT7=
EXTT8=
EXTT9=
EXTT10=
EXTT11=
PLAYORDER=
